<svg width="16" height="16" viewBox="0 0 14 16" fill="none" xmlns="http://www.w3.org/2000/svg">
<path d="M2.30693 12.7728H13.2056C13.239 12.7728 13.2713 12.768 13.3024 12.7606C13.3049 12.7606 13.3069 12.761 13.3094 12.761C13.5421 12.761 13.7311 12.5722 13.7311 12.3394V0.421668C13.7311 0.188906 13.5421 0 13.3094 0H13.2065H2.98132H2.30752C1.18516 0 0.27223 0.913143 0.27223 2.03519C0.27223 2.05024 0.275191 2.06452 0.276654 2.07904C0.275191 3.11553 0.262338 12.6396 0.275191 13.8916C0.27439 13.9161 0.271394 13.94 0.271394 13.9647C0.271394 15.0437 1.11619 15.9269 2.17881 15.9937C2.20013 15.9969 2.22103 16 2.24315 16H13.3094C13.542 16 13.731 15.8112 13.731 15.5784V13.9911C13.731 13.7585 13.542 13.5695 13.3094 13.5695C13.0767 13.5695 12.8877 13.7585 12.8877 13.9911V15.1567H2.30693C1.66615 15.1567 1.14308 14.648 1.11738 14.0136C1.118 14.0023 1.12006 13.9916 1.11985 13.98C1.11943 13.9615 1.11881 13.9327 1.11839 13.8944C1.15524 13.27 1.67347 12.7728 2.30693 12.7728ZM2.59445 2.03519C2.59445 1.80242 2.78336 1.61352 3.01612 1.61352C3.24888 1.61352 3.43779 1.80242 3.43779 2.03519V10.6004C3.43779 10.833 3.24888 11.0221 3.01612 11.0221C2.78336 11.0221 2.59445 10.833 2.59445 10.6004V2.03519Z" fill="black"/>
</svg>
