<svg width="16" height="16" viewBox="0 0 16 16" fill="none" xmlns="http://www.w3.org/2000/svg">
<path fill-rule="evenodd" clip-rule="evenodd" d="M7.97616 0.163086C3.56555 0.163086 0 3.75492 0 8.19851C0 11.7505 2.28457 14.7572 5.45388 15.8214C5.85012 15.9014 5.99527 15.6485 5.99527 15.4357C5.99527 15.2495 5.9822 14.6109 5.9822 13.9456C3.76343 14.4246 3.30139 12.9877 3.30139 12.9877C2.94482 12.0565 2.41649 11.8171 2.41649 11.8171C1.69029 11.3249 2.46939 11.3249 2.46939 11.3249C3.27494 11.3781 3.69763 12.1497 3.69763 12.1497C4.41061 13.3735 5.55951 13.0277 6.02171 12.8148C6.08767 12.296 6.2991 11.9368 6.52359 11.7373C4.75396 11.551 2.89208 10.8592 2.89208 7.77272C2.89208 6.89468 3.20882 6.17631 3.71069 5.61762C3.63151 5.41811 3.35412 4.59313 3.79004 3.48896C3.79004 3.48896 4.46351 3.27607 5.98204 4.31378C6.63218 4.13789 7.30265 4.04841 7.97616 4.04766C8.64963 4.04766 9.33616 4.14088 9.97012 4.31378C11.4888 3.27607 12.1623 3.48896 12.1623 3.48896C12.5982 4.59313 12.3207 5.41811 12.2415 5.61762C12.7566 6.17631 13.0602 6.89468 13.0602 7.77272C13.0602 10.8592 11.1984 11.5376 9.41551 11.7373C9.70612 11.99 9.9569 12.4689 9.9569 13.2272C9.9569 14.3048 9.94384 15.1696 9.94384 15.4356C9.94384 15.6485 10.0891 15.9014 10.4852 15.8215C13.6545 14.757 15.9391 11.7505 15.9391 8.19851C15.9522 3.75492 12.3736 0.163086 7.97616 0.163086Z" fill="black"/>
</svg>
