<?xml version="1.0" encoding="UTF-8" standalone="no"?>
<!DOCTYPE svg PUBLIC "-//W3C//DTD SVG 1.1//EN" "http://www.w3.org/Graphics/SVG/1.1/DTD/svg11.dtd">
<svg width="153px" height="60px" viewBox="0 0 153 60" version="1.1" xmlns="http://www.w3.org/2000/svg" xmlns:xlink="http://www.w3.org/1999/xlink" xml:space="preserve" xmlns:serif="http://www.serif.com/" style="fill-rule:evenodd;clip-rule:evenodd;stroke-linejoin:round;stroke-miterlimit:2;">

<defs>
  <pattern id="raster" patternUnits="userSpaceOnUse" width="128" height="128">
    <image href="/raster.png" x="0" y="0" width="128" height="128" />
  </pattern>
</defs>
                <path fill="hsla(45, 100%, 98.4%, 1)" d="M153,-0L-0,-0L-0,60.157L153,60.157L153,-0ZM147.437,6.157L132.437,6.157L132.437,54.157L147.437,54.157L147.437,6.157ZM131.687,6.157L116.687,6.157L116.687,54.157L131.687,54.157L131.687,6.157ZM100.187,6.157L85.187,6.157L85.187,54.157L100.187,54.157L100.187,6.157ZM84.437,6.157L69.437,6.157L69.437,54.157L84.437,54.157L84.437,6.157ZM68.687,6.157L53.687,6.157L53.687,54.157L68.687,54.157L68.687,6.157ZM126.383,36.925C126.394,36.927 126.394,36.912 126.383,36.925L126.334,36.925C126.196,37.571 125.86,38.107 125.327,38.533C124.607,39.109 123.639,39.397 122.423,39.397C121.063,39.397 119.991,39.037 119.207,38.317C118.423,37.597 118.031,36.629 118.031,35.413C118.031,34.117 118.471,33.117 119.351,32.413C120.247,31.693 121.503,31.333 123.119,31.333L126.287,31.333L126.287,30.229C126.287,29.589 126.079,29.093 125.663,28.741C125.247,28.389 124.663,28.213 123.911,28.213C123.223,28.213 122.655,28.357 122.207,28.645C121.775,28.933 121.535,29.317 121.487,29.797L118.631,29.797C118.679,28.965 118.927,28.245 119.375,27.637C119.839,27.029 120.463,26.557 121.247,26.221C122.047,25.885 122.967,25.717 124.007,25.717C125.639,25.717 126.927,26.117 127.871,26.917C128.815,27.717 129.287,28.813 129.287,30.205L129.287,39.157L126.383,39.157L126.383,36.925ZM13.661,39.397C12.541,39.397 11.565,39.181 10.733,38.749C9.901,38.317 9.253,37.717 8.789,36.949C8.341,36.165 8.117,35.253 8.117,34.213L8.117,30.901C8.117,29.861 8.341,28.957 8.789,28.189C9.253,27.405 9.901,26.797 10.733,26.365C11.565,25.933 12.541,25.717 13.661,25.717C14.765,25.717 15.725,25.933 16.541,26.365C17.373,26.797 18.013,27.405 18.461,28.189C18.925,28.957 19.157,29.861 19.157,30.901L19.157,33.277L11.021,33.277L11.021,34.213C11.021,35.141 11.245,35.845 11.693,36.325C12.141,36.789 12.805,37.021 13.685,37.021C14.357,37.021 14.901,36.909 15.317,36.685C15.733,36.445 15.997,36.101 16.109,35.653L19.061,35.653C18.837,36.789 18.229,37.701 17.237,38.389C16.261,39.061 15.069,39.397 13.661,39.397ZM94.834,36.925C94.89,36.942 94.878,36.926 94.883,36.925L94.834,36.925C94.696,37.571 94.36,38.107 93.827,38.533C93.107,39.109 92.139,39.397 90.923,39.397C89.563,39.397 88.491,39.037 87.707,38.317C86.923,37.597 86.531,36.629 86.531,35.413C86.531,34.117 86.971,33.117 87.851,32.413C88.747,31.693 90.003,31.333 91.619,31.333L94.787,31.333L94.787,30.229C94.787,29.589 94.579,29.093 94.163,28.741C93.747,28.389 93.163,28.213 92.411,28.213C91.723,28.213 91.155,28.357 90.707,28.645C90.275,28.933 90.035,29.317 89.987,29.797L87.131,29.797C87.179,28.965 87.427,28.245 87.875,27.637C88.339,27.029 88.963,26.557 89.747,26.221C90.547,25.885 91.467,25.717 92.507,25.717C94.139,25.717 95.427,26.117 96.371,26.917C97.315,27.717 97.787,28.813 97.787,30.205L97.787,39.157L94.883,39.157L94.883,36.925L94.834,36.925ZM47.537,36.781C47.563,36.76 47.548,36.76 47.561,36.781L47.537,36.781C47.372,37.375 47.1,37.879 46.721,38.293C46.049,39.029 45.121,39.397 43.937,39.397C42.657,39.397 41.617,38.941 40.817,38.029C40.017,37.117 39.617,35.893 39.617,34.357L39.617,30.781C39.617,29.229 40.017,27.997 40.817,27.085C41.617,26.173 42.657,25.717 43.937,25.717C45.121,25.717 46.049,26.093 46.721,26.845C47.096,27.257 47.367,27.753 47.533,28.333L47.585,28.333C47.584,28.327 47.6,28.335 47.533,28.333L47.585,28.333L47.489,25.333L47.489,21.637L50.489,21.637L50.489,39.157L47.561,39.157L47.561,36.781L47.537,36.781ZM63.334,36.925C63.383,36.924 63.395,36.935 63.383,36.925L63.334,36.925C63.196,37.571 62.86,38.107 62.327,38.533C61.607,39.109 60.639,39.397 59.423,39.397C58.063,39.397 56.991,39.037 56.207,38.317C55.423,37.597 55.031,36.629 55.031,35.413C55.031,34.117 55.471,33.117 56.351,32.413C57.247,31.693 58.503,31.333 60.119,31.333L63.287,31.333L63.287,30.229C63.287,29.589 63.079,29.093 62.663,28.741C62.247,28.389 61.663,28.213 60.911,28.213C60.223,28.213 59.655,28.357 59.207,28.645C58.775,28.933 58.535,29.317 58.487,29.797L55.631,29.797C55.679,28.965 55.927,28.245 56.375,27.637C56.839,27.029 57.463,26.557 58.247,26.221C59.047,25.885 59.967,25.717 61.007,25.717C62.639,25.717 63.927,26.117 64.871,26.917C65.815,27.717 66.287,28.813 66.287,30.205L66.287,39.157L63.383,39.157L63.383,36.925L63.334,36.925ZM105.692,28.477C105.686,28.491 105.691,28.479 105.692,28.477C105.807,27.731 106.118,27.123 106.625,26.653C107.297,26.029 108.177,25.717 109.265,25.717C110.593,25.717 111.657,26.173 112.457,27.085C113.257,27.997 113.657,29.229 113.657,30.781L113.657,34.357C113.657,35.893 113.257,37.117 112.457,38.029C111.657,38.941 110.593,39.397 109.265,39.397C108.177,39.397 107.297,39.093 106.625,38.485C106.146,38.03 105.842,37.456 105.713,36.762L105.713,36.637C105.712,36.63 105.715,36.642 105.713,36.762L105.713,39.157L102.785,39.157L102.785,21.637L105.785,21.637L105.785,25.333L105.689,28.477L105.692,28.477ZM139.133,39.373C138.125,39.373 137.237,39.213 136.469,38.893C135.701,38.573 135.101,38.133 134.669,37.573C134.253,36.997 134.045,36.317 134.045,35.533L137.069,35.533C137.069,35.997 137.253,36.357 137.621,36.613C138.005,36.853 138.517,36.973 139.157,36.973L140.189,36.973C140.925,36.973 141.477,36.837 141.845,36.565C142.229,36.293 142.421,35.917 142.421,35.437C142.421,34.973 142.245,34.605 141.893,34.333C141.541,34.045 141.037,33.853 140.381,33.757L138.533,33.517C137.157,33.309 136.117,32.877 135.413,32.221C134.725,31.565 134.381,30.677 134.381,29.557C134.381,28.309 134.797,27.365 135.629,26.725C136.477,26.069 137.701,25.741 139.301,25.741L140.213,25.741C141.717,25.741 142.917,26.069 143.813,26.725C144.709,27.381 145.157,28.261 145.157,29.365L142.133,29.365C142.133,28.981 141.965,28.685 141.629,28.477C141.293,28.253 140.813,28.141 140.189,28.141L139.277,28.141C138.637,28.141 138.149,28.269 137.813,28.525C137.477,28.765 137.309,29.109 137.309,29.557C137.309,30.373 137.893,30.869 139.061,31.045L140.933,31.333C142.421,31.525 143.525,31.957 144.245,32.629C144.981,33.285 145.349,34.197 145.349,35.365C145.349,36.629 144.909,37.613 144.029,38.317C143.165,39.021 141.885,39.373 140.189,39.373L139.133,39.373ZM78.077,39.157C76.845,39.157 75.861,38.805 75.125,38.101C74.405,37.381 74.045,36.413 74.045,35.197L74.045,28.669L70.469,28.669L70.469,25.957L74.045,25.957L74.045,22.237L77.069,22.237L77.069,25.957L82.133,25.957L82.133,28.669L77.069,28.669L77.069,35.125C77.069,35.509 77.173,35.829 77.381,36.085C77.605,36.325 77.909,36.445 78.293,36.445L81.893,36.445L81.893,39.157L78.077,39.157ZM27.012,28.477C27.02,28.489 27.017,28.497 27.012,28.477C27.121,27.731 27.417,27.123 27.899,26.653C28.539,26.029 29.411,25.717 30.515,25.717C31.811,25.717 32.843,26.149 33.611,27.013C34.395,27.877 34.787,29.037 34.787,30.493L34.787,39.157L31.787,39.157L31.787,30.805C31.787,30.005 31.579,29.389 31.163,28.957C30.747,28.525 30.171,28.309 29.435,28.309C28.683,28.309 28.091,28.533 27.659,28.981C27.243,29.429 27.035,30.069 27.035,30.901L27.035,39.157L24.035,39.157L24.035,25.957L26.963,25.957L26.963,28.477L27.012,28.477ZM60.407,37.165C61.255,37.165 61.943,36.949 62.471,36.517C63.015,36.085 63.287,35.533 63.287,34.861L63.287,33.253L60.191,33.253C59.519,33.253 58.991,33.429 58.607,33.781C58.223,34.117 58.031,34.573 58.031,35.149C58.031,35.789 58.239,36.285 58.655,36.637C59.087,36.989 59.671,37.165 60.407,37.165ZM91.907,37.165C92.755,37.165 93.443,36.949 93.971,36.517C94.515,36.085 94.787,35.533 94.787,34.861L94.787,33.253L91.691,33.253C91.019,33.253 90.491,33.429 90.107,33.781C89.723,34.117 89.531,34.573 89.531,35.149C89.531,35.789 89.739,36.285 90.155,36.637C90.587,36.989 91.171,37.165 91.907,37.165ZM123.407,37.165C124.255,37.165 124.943,36.949 125.471,36.517C126.015,36.085 126.287,35.533 126.287,34.861L126.287,33.253L123.191,33.253C122.519,33.253 121.991,33.429 121.607,33.781C121.223,34.117 121.031,34.573 121.031,35.149C121.031,35.789 121.239,36.285 121.655,36.637C122.087,36.989 122.671,37.165 123.407,37.165ZM108.209,36.805C108.977,36.805 109.577,36.581 110.009,36.133C110.441,35.685 110.657,35.045 110.657,34.213L110.657,30.901C110.657,30.069 110.441,29.429 110.009,28.981C109.577,28.533 108.977,28.309 108.209,28.309C107.457,28.309 106.865,28.541 106.433,29.005C106.001,29.453 105.785,30.085 105.785,30.901L105.785,34.213C105.785,35.029 106.001,35.669 106.433,36.133C106.865,36.581 107.457,36.805 108.209,36.805ZM45.065,36.805C45.833,36.805 46.425,36.573 46.841,36.109C47.273,35.645 47.489,34.989 47.489,34.141L47.489,30.973C47.489,30.125 47.273,29.469 46.841,29.005C46.425,28.541 45.833,28.309 45.065,28.309C44.297,28.309 43.697,28.533 43.265,28.981C42.833,29.429 42.617,30.069 42.617,30.901L42.617,34.213C42.617,35.045 42.833,35.685 43.265,36.133C43.697,36.581 44.297,36.805 45.065,36.805ZM16.253,31.359L16.253,31.359ZM16.253,31.359L16.253,30.877C16.253,29.965 16.037,29.269 15.605,28.789C15.173,28.293 14.525,28.045 13.661,28.045C12.797,28.045 12.141,28.293 11.693,28.789C11.245,29.285 11.021,29.989 11.021,30.901L11.021,31.405L16.253,31.359Z"/>

</svg>
