<svg width="16" height="16" viewBox="0 0 16 16" fill="none" xmlns="http://www.w3.org/2000/svg">
<path d="M11.3577 0H4.65032C1.73687 0 0 1.736 0 4.648V11.344C0 14.264 1.73687 16 4.65032 16H11.3497C14.2631 16 16 14.264 16 11.352V4.648C16.008 1.736 14.2711 0 11.3577 0ZM7.69183 7.872C7.69183 10.336 7.15557 10.888 5.72285 11.736C5.62681 11.792 5.52273 11.816 5.41869 11.816C5.21057 11.816 5.01049 11.712 4.89843 11.52C4.73035 11.232 4.82639 10.864 5.10655 10.696C6.07503 10.12 6.4112 9.912 6.47523 8.464H4.95447C4.08204 8.464 3.4017 7.784 3.4017 6.912V5.728C3.4017 4.856 4.08204 4.176 4.95447 4.176H6.14707C7.00349 4.176 7.69984 4.872 7.69984 5.728V7.872H7.69183ZM12.6063 7.872C12.6063 10.336 12.07 10.888 10.6373 11.736C10.5413 11.792 10.4372 11.816 10.3331 11.816C10.125 11.816 9.92493 11.712 9.81288 11.52C9.6448 11.232 9.74084 10.864 10.021 10.696C10.9895 10.12 11.3257 9.912 11.3897 8.464H9.86092C8.98849 8.464 8.30814 7.784 8.30814 6.912V5.728C8.30814 4.856 8.98849 4.176 9.86092 4.176H11.0535C11.9099 4.176 12.6063 4.872 12.6063 5.728L12.6063 7.872Z" fill="black"/>
</svg>
