<svg width="251" height="107" viewBox="0 0 251 107" fill="none" xmlns="http://www.w3.org/2000/svg">
<g filter="url(#filter0_f_535_384)">
<g clip-path="url(#clip0_535_384)">
<path d="M74.994 29.909C74.4112 29.9249 73.9299 29.665 73.5501 29.1282C73.1703 28.5914 72.9719 27.9955 72.954 27.3388C72.9361 26.683 72.9756 26.1167 73.0716 25.6399C73.1681 25.1451 73.3551 24.6658 73.6345 24.202C73.9125 23.7203 74.1394 23.3499 74.3154 23.089C74.5078 22.8106 74.8435 22.3913 75.3204 21.8311C75.7972 21.2708 76.1507 20.842 76.3796 20.5437C76.607 20.2273 77.2606 19.4342 78.3383 18.1652C79.416 16.8953 80.1588 16.0367 80.5657 15.5874C81.2166 14.038 81.5152 12.2972 81.4624 10.366C81.4559 10.129 81.4404 9.89238 81.416 9.65596C80.9421 9.66892 80.2719 9.8513 79.4062 10.2031C78.5405 10.5549 77.7702 10.74 77.0965 10.7584L77.0778 10.0757C77.8795 10.0537 78.534 9.98984 79.0423 9.88491C79.5492 9.76201 80.0895 9.51016 80.6623 9.12936C80.7518 9.07189 81.0537 8.77253 81.568 8.22928C82.0824 7.68702 82.476 7.41116 82.7489 7.4037C82.7674 8.07845 82.6483 9.06607 82.3928 10.3675C82.1537 11.6505 82.0402 12.511 82.0522 12.9488L82.0738 13.7415L87.6036 7.87322C88.6318 6.80572 89.7571 6.25477 90.9777 6.2214C91.4335 6.20894 91.7546 6.28219 91.941 6.44116C92.1455 6.59963 92.2579 7.01672 92.2763 7.69046C92.2948 8.36521 92.0942 9.37307 91.6748 10.716C91.2553 12.059 90.6989 13.3687 90.0045 14.6461C89.3282 15.9231 88.4829 17.0216 87.4687 17.9427C86.4545 18.8647 85.491 19.3372 84.5804 19.3621C83.6877 19.3865 82.7191 18.9758 81.6746 18.1291C81.3625 20.0703 81.0567 21.5462 80.7563 22.5578C80.7083 22.8142 80.5395 23.302 80.2491 24.0212C79.9586 24.7404 79.7269 25.2669 79.5539 25.5998C79.399 25.9322 79.1468 26.4042 78.7993 27.0149C78.4504 27.6087 78.1085 28.0922 77.7716 28.4656C77.4532 28.8214 77.0521 29.1515 76.5682 29.4558C76.1019 29.7427 75.5768 29.8931 74.994 29.909ZM73.7145 27.1269C73.7514 28.4754 74.2156 29.137 75.1093 29.1126C75.892 29.0912 76.6212 28.7251 77.2941 28.0135C77.9859 27.3023 78.5462 26.4296 78.9732 25.3966C79.4191 24.363 79.8 23.2582 80.1141 22.0832C80.7085 19.8241 80.9869 18.0018 80.949 16.6163C80.7311 16.6223 80.0728 17.2425 78.9761 18.4759C77.8789 19.6914 77.1276 20.5692 76.7232 21.1085C76.3368 21.6482 75.9396 22.1603 75.5337 22.6455C75.1458 23.1303 74.8821 23.4747 74.7417 23.6796C74.6192 23.884 74.4545 24.1886 74.2465 24.5955C73.8646 25.2991 73.6876 26.1433 73.7145 27.1269ZM87.626 8.69291C85.3576 11.0888 83.8433 12.7448 83.084 13.6589C82.3247 14.573 81.9285 15.085 81.8955 15.1959C81.8615 15.3059 81.8525 15.6343 81.8674 16.1811C81.8819 16.7099 82.0968 17.2512 82.514 17.805C82.9478 18.3403 83.4931 18.5985 84.1489 18.5806C85.1325 18.5537 86.0867 18.1085 87.0114 17.2439C87.9541 16.3798 88.7279 15.3373 89.3338 14.1173C89.9382 12.8783 90.4139 11.6168 90.7619 10.3308C91.1274 9.02536 91.2969 7.90831 91.2715 6.97966C90.4338 7.00255 89.6113 7.28914 88.8061 7.84035C88.5557 8.01125 88.1623 8.29511 87.626 8.69291ZM93.4225 27.6276C93.452 28.0459 93.7776 28.2471 94.3964 28.2302C94.7612 28.2202 95.1691 28.1361 95.6209 27.9776C96.0718 27.8193 96.5071 27.7163 96.925 27.6689C97.3618 27.6199 97.5837 27.7239 97.5907 27.9788C96.8389 28.5096 95.7905 28.8393 94.4445 28.9672C94.372 28.9872 94.2993 28.9991 94.2264 29.0011C93.7166 29.0151 93.3115 28.9071 93.0141 28.6781C92.7332 28.4307 92.5898 28.1605 92.5818 27.8697C92.5739 27.5778 92.5851 27.3314 92.6156 27.1305C92.6047 26.7286 92.6707 26.1436 92.8137 25.3744C92.9757 24.6037 93.051 24.0274 93.0405 23.6445C92.7127 23.6535 92.1499 23.7419 91.3522 23.9098C90.5719 24.0581 90.0104 24.1925 89.6665 24.311C89.2739 26.6016 88.5216 28.1357 87.4124 28.9133C87.0905 29.1412 86.8386 29.2571 86.6567 29.2621C86.4927 29.2666 86.3638 29.2341 86.2708 29.1636C86.1954 29.0746 86.1556 28.9747 86.1526 28.8657C86.1492 28.7388 86.2276 28.5715 86.3861 28.3671C86.9519 28.3877 87.3633 28.1033 87.6202 27.5131C87.8792 26.9588 88.0821 26.369 88.2292 25.7458C88.3937 25.1031 88.5269 24.6342 88.6279 24.3394C87.7618 24.0169 87.3219 23.5908 87.3075 23.063C87.2811 22.0963 87.682 21.4291 88.5112 21.0603C88.7991 20.9424 89.0895 20.8805 89.3814 20.8725C89.6723 20.8645 89.94 20.9573 90.1824 21.1517C90.4427 21.3447 90.5784 21.6241 90.5884 21.9879C90.5983 22.3528 90.3751 22.8601 89.9187 23.5108C89.9727 23.5093 90.2986 23.4274 90.8964 23.265C92.5428 22.7828 93.5395 22.5365 93.8853 22.527C93.9008 23.0918 93.8242 23.9512 93.6547 25.1043C93.4856 26.2403 93.4076 27.0808 93.4225 27.6276ZM89.1557 21.6169C88.8088 21.6264 88.5281 22.0082 88.3117 22.7614C88.3206 23.0893 88.5918 23.347 89.126 23.5325C89.4984 23.1391 89.6792 22.7611 89.6692 22.3962C89.6652 22.2503 89.6147 22.0876 89.5188 21.9081C89.4403 21.7092 89.3196 21.6125 89.1557 21.6169ZM96.5907 26.4196C96.5672 26.2561 96.554 26.1014 96.55 25.9555C96.5181 24.7889 96.8681 23.5759 97.6 22.3165C98.3488 21.0555 99.3345 20.4083 100.555 20.375C100.792 20.3685 100.986 20.4362 101.136 20.5782C101.284 20.7022 101.363 20.9281 101.372 21.256C101.381 21.5659 101.3 21.9412 101.13 22.384C100.978 22.8073 100.725 23.2424 100.373 23.6902C100.039 24.1365 99.7474 24.5006 99.5 24.7805C99.2516 25.0613 98.8974 25.4262 98.4356 25.877C97.9917 26.3262 97.726 26.5986 97.6375 26.6921C97.6225 26.8385 97.6158 26.9207 97.6163 26.9387C97.6297 27.4306 97.8771 27.8069 98.3584 28.0669C98.8397 28.3278 99.3352 28.4503 99.846 28.4364C101.067 28.403 102.026 28.1587 102.725 27.7014C103.442 27.2447 104.26 26.483 105.18 25.4185C105.321 25.2326 105.399 25.0844 105.414 24.9749C105.447 24.864 105.544 24.7433 105.705 24.6108C105.889 24.6788 105.984 24.8493 105.992 25.1232C105.825 25.693 105.477 26.3137 104.948 26.9844C104.419 27.6371 103.787 28.2016 103.053 28.6778C102.031 29.307 101.155 29.632 100.426 29.652C99.7157 29.6714 99.0163 29.4444 98.3281 28.971C97.6409 28.4966 97.0614 27.6472 96.5907 26.4196ZM100.638 21.3851C99.8539 21.4065 99.1367 21.8453 98.4858 22.7024C97.834 23.5585 97.5191 24.3704 97.54 25.1351C97.5469 25.3901 97.5699 25.5725 97.6099 25.6804C98.2737 25.2972 98.9495 24.6595 99.6363 23.7654C100.323 22.8523 100.656 22.0598 100.638 21.3851ZM104.884 35.6024C104.85 34.3638 104.883 33.2865 104.986 32.3724C105.09 31.4752 105.33 30.2472 105.706 28.6873L109.352 18.9861L109.544 18.9808C110.273 18.9609 110.65 19.3968 110.674 20.2904C110.71 21.5839 110.188 23.2118 109.111 25.175C108.452 26.3784 107.845 27.1873 107.291 27.6046C107.515 28.4738 108.265 28.8905 109.54 28.8556C111.145 28.8118 112.715 28.2396 114.253 27.1402C114.414 27.0268 114.547 26.8951 114.652 26.7461C114.776 26.5787 114.882 26.4578 114.972 26.3823C115.061 26.3068 115.204 26.2659 115.405 26.2604C115.421 26.8442 114.981 27.4304 114.086 28.0201C113.189 28.5918 112.253 29.0366 111.277 29.3553C110.32 29.6736 109.541 29.859 108.941 29.9114C108.95 30.2393 109.045 30.7109 109.225 31.3261C109.407 31.9594 109.504 32.504 109.516 32.9598C109.529 33.4336 109.421 34.1749 109.194 35.1834C108.984 36.1926 108.628 37.1597 108.124 38.0858C107.639 39.0284 107.087 39.5086 106.468 39.5256C105.484 39.5525 104.956 38.2444 104.884 35.6024ZM105.64 35.2806C105.7 37.4498 106.048 38.5247 106.686 38.5072C107.16 38.4943 107.621 37.6974 108.07 36.1175C108.538 34.5541 108.761 33.3726 108.739 32.5699C108.718 31.7872 108.582 31.1337 108.331 30.6123C108.08 30.108 107.567 29.7029 106.793 29.3959C106.345 29.6992 106.03 30.4922 105.845 31.7737C105.679 33.0547 105.611 34.224 105.64 35.2806ZM107.984 24.9597L107.992 25.2326C108.468 24.6544 108.878 23.9589 109.22 23.1472C109.563 22.3356 109.725 21.6019 109.707 20.9461C109.706 20.9091 109.695 20.8364 109.674 20.7279L109.669 20.536L109.402 20.7904L107.984 24.9597ZM114.357 25.9339C114.335 25.7705 114.321 25.6158 114.317 25.4698C114.285 24.3033 114.634 23.0903 115.366 21.8308C116.116 20.5698 117.101 19.9227 118.322 19.8893C118.559 19.8828 118.752 19.9506 118.902 20.0925C119.052 20.2165 119.131 20.4424 119.14 20.7703C119.148 21.0802 119.067 21.4555 118.896 21.8984C118.744 22.3217 118.492 22.7567 118.139 23.2046C117.805 23.6508 117.514 24.0149 117.266 24.2948C117.019 24.5757 116.664 24.9405 116.202 25.3913C115.759 25.8406 115.492 26.113 115.404 26.2064C115.39 26.3528 115.383 26.4351 115.384 26.4531C115.397 26.9449 115.644 27.3212 116.126 27.5812C116.607 27.8421 117.103 27.9646 117.612 27.9507C118.834 27.9173 119.794 27.673 120.492 27.2157C121.209 26.759 122.027 25.9974 122.946 24.9328C123.087 24.7469 123.165 24.5987 123.18 24.4893C123.214 24.3783 123.311 24.2576 123.471 24.1252C123.655 24.1932 123.752 24.3636 123.759 24.6375C123.592 25.2073 123.244 25.828 122.716 26.4987C122.186 27.1514 121.554 27.7159 120.819 28.1922C119.797 28.8213 118.922 29.1464 118.193 29.1663C117.482 29.1857 116.783 28.9588 116.095 28.4854C115.407 28.011 114.828 27.1615 114.357 25.9339ZM118.405 20.8994C117.621 20.9208 116.904 21.3596 116.252 22.2167C115.601 23.0728 115.285 23.8848 115.306 24.6495C115.313 24.9044 115.337 25.0868 115.376 25.1948C116.04 24.8115 116.716 24.1738 117.403 23.2797C118.089 22.3666 118.423 21.5742 118.405 20.8994ZM130.515 26.6136C130.544 27.032 130.869 27.2332 131.489 27.2163C131.852 27.2063 132.26 27.1221 132.712 26.9637C133.164 26.8053 133.598 26.7024 134.017 26.655C134.453 26.606 134.675 26.71 134.682 26.9649C133.93 27.4957 132.882 27.8254 131.536 27.9533C131.463 27.9732 131.39 27.9852 131.318 27.9872C130.808 28.0012 130.404 27.8932 130.105 27.6642C129.825 27.4168 129.681 27.1466 129.673 26.8557C129.665 26.5638 129.676 26.3174 129.708 26.1165C129.697 25.7147 129.763 25.1296 129.906 24.3604C130.067 23.5898 130.142 23.0135 130.132 22.6306C129.804 22.6396 129.241 22.728 128.443 22.8959C127.663 23.0442 127.102 23.1786 126.759 23.297C126.365 25.5877 125.614 27.1218 124.505 27.8994C124.183 28.1272 123.93 28.2432 123.748 28.2482C123.584 28.2526 123.455 28.2202 123.362 28.1497C123.287 28.0607 123.248 27.9607 123.245 27.8518C123.241 27.7248 123.319 27.5576 123.477 27.3532C124.043 27.3738 124.454 27.0894 124.712 26.4992C124.97 25.9449 125.173 25.3551 125.32 24.7319C125.485 24.0891 125.618 23.6203 125.72 23.3254C124.854 23.003 124.413 22.5769 124.399 22.0491C124.372 21.0824 124.774 20.4152 125.602 20.0464C125.891 19.9285 126.182 19.8665 126.473 19.8586C126.764 19.8506 127.031 19.9433 127.274 20.1378C127.534 20.3308 127.67 20.6102 127.68 20.974C127.689 21.3389 127.466 21.8462 127.01 22.4969C127.065 22.4954 127.391 22.4134 127.989 22.251C129.634 21.7689 130.631 21.5226 130.976 21.5131C130.992 22.0779 130.915 22.9373 130.747 24.0904C130.577 25.2264 130.5 26.0669 130.515 26.6136ZM126.247 20.603C125.901 20.6125 125.619 20.9943 125.403 21.7475C125.412 22.0754 125.684 22.3331 126.217 22.5186C126.59 22.1252 126.77 21.7471 126.76 21.3823C126.756 21.2363 126.707 21.0736 126.611 20.8942C126.532 20.6953 126.411 20.5985 126.247 20.603ZM152.874 20.9966C152.669 22.2056 152.578 23.2115 152.6 24.0132C152.622 24.8149 152.693 25.4052 152.812 25.785C152.95 26.1464 153.158 26.4228 153.437 26.6163C153.734 26.8083 153.984 26.9115 154.184 26.924C154.403 26.936 154.667 26.9288 154.977 26.9023C156.271 26.2287 157.046 25.8884 157.302 25.8814C157.575 25.8739 157.713 25.9162 157.715 26.0072C157.719 26.1341 157.46 26.3603 156.94 26.6846C156.42 27.0089 155.771 27.2548 154.991 27.4221C152.987 27.4769 151.959 26.5927 151.909 24.7703C151.904 24.5704 151.907 24.3603 151.92 24.1408C151.816 24.3447 151.669 24.6589 151.481 25.0832C151.309 25.489 151.172 25.8029 151.068 26.0248C150.965 26.2457 150.809 26.5151 150.598 26.8309C150.387 27.1278 150.174 27.3527 149.96 27.5046C149.369 27.9039 148.672 28.114 147.871 28.136C147.524 28.1094 147.239 28.0352 147.017 27.9132C146.647 27.7222 146.453 27.2994 146.435 26.6436C146.404 25.4771 147.088 23.5166 148.49 20.7613C148.605 20.9762 148.667 21.2216 148.675 21.4945C148.682 21.7494 148.601 22.1168 148.431 22.5956C148.279 23.0549 148.024 23.7001 147.663 24.5313C147.321 25.3609 147.132 26.0954 147.094 26.7347C147.105 27.1175 147.238 27.3239 147.494 27.353L148.041 27.338C148.715 27.3196 149.388 26.9 150.058 26.0794C150.746 25.2403 151.277 24.3415 151.653 23.3828C152.028 22.4062 152.207 21.635 152.191 21.0703L152.483 20.7342C152.738 20.7272 152.869 20.8147 152.874 20.9966ZM159.083 29.0329L158.697 32.9009C158.629 33.0848 158.504 33.5354 158.324 34.2516C158.142 34.9678 158.046 35.4436 158.034 35.6811C157.653 37.078 157.154 37.8299 156.537 37.9378L156.399 37.9146C156.363 37.9155 156.271 37.8631 156.122 37.7581C155.955 37.6536 155.862 37.5731 155.841 37.5197C155.804 37.4837 155.744 37.2942 155.662 36.9504C155.579 36.6055 155.497 36.2706 155.415 35.9447C155.316 35.6373 155.259 35.2007 155.243 34.6359C155.228 34.0711 155.259 33.5601 155.337 33.1018C155.398 32.663 155.53 32.1482 155.733 31.5594C155.918 30.9701 156.096 30.4821 156.267 30.0952C156.421 29.7079 156.635 29.1909 156.909 28.5451C157.202 27.8989 157.398 27.4473 157.501 27.1894C157.603 26.9306 157.651 26.6472 157.642 26.3373L157.419 24.1826C157.389 23.071 157.576 21.9254 157.982 20.7479C158.036 20.7284 158.081 20.7172 158.118 20.7162C158.5 20.7057 158.703 21.1113 158.725 21.931C158.735 22.2949 158.682 22.6985 158.566 23.1388C159.124 22.1752 159.813 21.3631 160.633 20.7024C161.472 20.0233 162.326 19.5618 163.195 19.3199C164.146 19.421 164.636 20.0008 164.665 21.0574C164.671 21.2943 164.651 21.568 164.605 21.8793C164.422 23.2158 163.883 24.489 162.986 25.699C162.44 26.4252 161.941 26.831 161.487 26.9154C161.47 26.9349 161.462 26.9711 161.464 27.0261C161.465 27.0811 161.557 27.1056 161.739 27.1006C161.94 27.0951 162.408 26.9363 163.148 26.6239C164.861 25.9029 166.118 25.1842 166.919 24.4701C167.115 24.3007 167.238 24.1602 167.29 24.0488C167.301 23.7934 167.353 23.6739 167.445 23.6894C167.536 23.7049 167.583 23.7767 167.586 23.9046C167.589 24.0136 167.575 24.151 167.544 24.316C167.296 25.2891 166.309 26.1914 164.582 27.0229C163.393 27.5846 161.893 28.0718 160.081 28.4864C160.026 28.5059 159.936 28.5354 159.809 28.5759C159.466 28.6763 159.294 28.736 159.295 28.754L159.083 29.0329ZM158.254 27.7151C157.392 28.87 156.786 30.0351 156.435 31.2121C156.067 32.4076 155.891 33.3327 155.909 33.9885C155.927 34.6632 155.968 35.1183 156.028 35.3537C156.09 35.6072 156.132 35.7881 156.153 35.8975C156.174 36.024 156.204 36.1142 156.242 36.1682C156.262 36.2407 156.292 36.3219 156.331 36.4119C156.41 36.6108 156.531 36.7435 156.697 36.812C157.355 35.5175 157.774 34.1656 157.954 32.7572C158.152 31.3472 158.252 29.6668 158.254 27.7151ZM162.979 20.4472C162.851 20.4507 162.706 20.4727 162.543 20.5132C161.476 20.8345 160.589 21.761 159.884 23.2939C159.333 24.4584 159.07 25.532 159.097 26.5166C159.106 26.8625 159.151 27.1894 159.233 27.4972C160.069 27.4014 161.004 26.5915 162.038 25.0677C163.143 23.4519 163.682 22.1597 163.656 21.194C163.642 20.6842 163.416 20.4353 162.979 20.4472ZM169.279 28.7542L168.892 32.6222C168.824 32.8061 168.699 33.2567 168.519 33.9729C168.337 34.6891 168.241 35.1649 168.23 35.4023C167.848 36.7993 167.349 37.5512 166.732 37.6591L166.594 37.6359C166.558 37.6369 166.466 37.5844 166.317 37.4794C166.15 37.3749 166.057 37.2944 166.037 37.2409C165.999 37.205 165.939 37.0155 165.857 36.6717C165.775 36.3268 165.693 35.9919 165.611 35.666C165.512 35.3586 165.454 34.922 165.438 34.3572C165.423 33.7924 165.455 33.2814 165.533 32.8231C165.594 32.3842 165.725 31.8695 165.928 31.2807C166.113 30.6914 166.291 30.2034 166.463 29.8166C166.616 29.4292 166.83 28.9122 167.104 28.2664C167.397 27.6202 167.595 27.1686 167.697 26.9107C167.799 26.6519 167.846 26.3685 167.837 26.0586L167.614 23.9039C167.584 22.7923 167.772 21.6467 168.177 20.4692C168.231 20.4497 168.276 20.4385 168.313 20.4375C168.696 20.427 168.898 20.8326 168.92 21.6523C168.93 22.0162 168.877 22.4198 168.762 22.8601C169.319 21.8965 170.008 21.0844 170.83 20.4237C171.667 19.7446 172.521 19.2831 173.39 19.0412C174.341 19.1423 174.831 19.7221 174.86 20.7787C174.866 21.0156 174.847 21.2893 174.8 21.6007C174.618 22.9371 174.078 24.2104 173.181 25.4203C172.636 26.1465 172.137 26.5523 171.683 26.6367C171.665 26.6562 171.657 26.6924 171.659 26.7474C171.66 26.8024 171.752 26.8269 171.934 26.8219C172.135 26.8164 172.605 26.6575 173.343 26.3452C175.056 25.6242 176.313 24.9055 177.114 24.1914C177.31 24.022 177.434 23.8815 177.486 23.7701C177.497 23.5147 177.548 23.3952 177.64 23.4107C177.731 23.4262 177.779 23.498 177.783 23.6259C177.786 23.7349 177.771 23.8723 177.739 24.0373C177.492 25.0104 176.505 25.9127 174.777 26.7442C173.589 27.3059 172.088 27.7931 170.276 28.2077C170.222 28.2272 170.131 28.2567 170.004 28.2972C169.661 28.3976 169.49 28.4573 169.49 28.4753L169.279 28.7542ZM168.449 27.4364C167.588 28.5914 166.981 29.7564 166.63 30.9334C166.262 32.1289 166.086 33.0541 166.104 33.7098C166.122 34.3846 166.163 34.8396 166.224 35.075C166.285 35.3285 166.327 35.5094 166.348 35.6188C166.37 35.7453 166.4 35.8355 166.438 35.8895C166.458 35.962 166.488 36.0432 166.526 36.1332C166.605 36.3321 166.726 36.4648 166.893 36.5333C167.55 35.2389 167.969 33.8869 168.15 32.4784C168.349 31.0685 168.449 29.3881 168.449 27.4364ZM173.174 20.1685C173.047 20.172 172.902 20.194 172.739 20.2345C171.671 20.5558 170.785 21.4823 170.079 23.0152C169.528 24.1797 169.265 25.2533 169.292 26.2379C169.301 26.5838 169.347 26.9106 169.428 27.2186C170.264 27.1227 171.2 26.3128 172.234 24.789C173.339 23.1732 173.878 21.881 173.851 20.9153C173.837 20.4055 173.612 20.1566 173.174 20.1685ZM177.033 24.2206C177.01 24.0572 176.997 23.9025 176.993 23.7565C176.961 22.59 177.311 21.377 178.042 20.1175C178.792 18.8566 179.777 18.2094 180.998 18.176C181.235 18.1695 181.428 18.2373 181.578 18.3793C181.727 18.5032 181.806 18.7291 181.815 19.057C181.824 19.3669 181.743 19.7422 181.573 20.1851C181.421 20.6084 181.167 21.0435 180.815 21.4912C180.481 21.9376 180.189 22.3017 179.942 22.5815C179.695 22.8624 179.339 23.2272 178.878 23.678C178.435 24.1273 178.168 24.3997 178.079 24.4931C178.065 24.6396 178.059 24.7218 178.059 24.7398C178.073 25.2316 178.32 25.608 178.801 25.8679C179.283 26.1289 179.778 26.2514 180.288 26.2374C181.51 26.204 182.469 25.9597 183.168 25.5025C183.885 25.0457 184.702 24.2841 185.622 23.2196C185.762 23.0336 185.84 22.8855 185.855 22.776C185.889 22.665 185.986 22.5443 186.147 22.4119C186.332 22.4799 186.427 22.6503 186.435 22.9242C186.267 23.494 185.92 24.1147 185.391 24.7854C184.862 25.4381 184.23 26.0026 183.496 26.4789C182.473 27.1081 181.597 27.4331 180.868 27.453C180.158 27.4725 179.459 27.2455 178.771 26.7721C178.084 26.2977 177.504 25.4482 177.033 24.2206ZM181.081 19.1861C180.297 19.2076 179.58 19.6463 178.928 20.5035C178.277 21.3596 177.962 22.1715 177.983 22.9362C177.99 23.1911 178.013 23.3735 178.052 23.4815C178.717 23.0982 179.391 22.4605 180.078 21.5664C180.765 20.6533 181.099 19.8609 181.081 19.1861ZM193.19 24.9004C193.22 25.3187 193.544 25.5199 194.164 25.503C194.529 25.493 194.937 25.4088 195.388 25.2505C195.839 25.092 196.275 24.9891 196.693 24.9417C197.129 24.8928 197.35 24.9967 197.357 25.2516C196.607 25.7823 195.557 26.1121 194.211 26.24C194.139 26.26 194.066 26.2719 193.994 26.2739C193.483 26.2879 193.079 26.1799 192.781 25.9509C192.501 25.7035 192.357 25.4334 192.349 25.1425C192.341 24.8506 192.353 24.6041 192.383 24.4032C192.372 24.0014 192.438 23.4164 192.581 22.6472C192.742 21.8765 192.818 21.3002 192.807 20.9173C192.479 20.9263 191.917 21.0147 191.119 21.1826C190.339 21.331 189.777 21.4654 189.434 21.5838C189.041 23.8744 188.289 25.4085 187.18 26.1861C186.858 26.414 186.606 26.5299 186.423 26.5349C186.259 26.5394 186.132 26.5069 186.039 26.4364C185.963 26.3474 185.923 26.2474 185.92 26.1385C185.917 26.0115 185.994 25.8444 186.153 25.6399C186.719 25.6605 187.131 25.3761 187.388 24.7859C187.646 24.2316 187.849 23.6419 187.996 23.0186C188.161 22.3758 188.294 21.9071 188.396 21.6122C187.529 21.2897 187.09 20.8636 187.075 20.3358C187.049 19.3691 187.45 18.7019 188.278 18.3331C188.567 18.2152 188.857 18.1533 189.148 18.1453C189.44 18.1373 189.707 18.2301 189.949 18.4245C190.21 18.6174 190.345 18.8969 190.355 19.2607C190.365 19.6256 190.142 20.1329 189.685 20.7836C189.74 20.7821 190.066 20.7002 190.664 20.5378C192.311 20.0556 193.306 19.8093 193.653 19.7998C193.668 20.3646 193.591 21.224 193.422 22.3771C193.252 23.5132 193.175 24.3536 193.19 24.9004ZM188.922 18.8897C188.577 18.8992 188.295 19.281 188.078 20.0342C188.087 20.3621 188.359 20.6198 188.893 20.8053C189.265 20.4119 189.447 20.0338 189.437 19.669C189.433 19.523 189.382 19.3604 189.287 19.1809C189.208 18.982 189.086 18.8853 188.922 18.8897ZM199.034 25.5339C199.654 25.517 200.289 25.4086 200.94 25.2087C201.59 25.0079 202.404 24.7305 203.379 24.3758C204.354 24.021 205.006 23.8391 205.334 23.8301C205.661 23.8212 205.828 23.9077 205.833 24.0896C205.835 24.1806 205.82 24.282 205.786 24.392C203.051 25.7252 200.908 26.413 199.36 26.4554C198.485 26.4793 197.796 26.297 197.293 25.9096C196.809 25.5217 196.559 25.0634 196.545 24.5356C196.53 23.9888 196.615 23.4393 196.801 22.887C197.223 21.654 197.935 20.6951 198.938 20.0115C199.528 19.5942 200.078 19.3781 200.589 19.3641C201.481 19.3397 202.242 19.8391 202.873 20.8613L202.875 20.9433L202.396 21.4485C201.991 20.6393 201.451 20.2429 200.777 20.2613C200.54 20.2678 200.296 20.3295 200.044 20.4454C199.159 20.7797 198.449 21.4834 197.913 22.5554C197.55 23.2766 197.378 23.9926 197.397 24.7033C197.595 25.2811 198.141 25.5583 199.034 25.5339ZM212.236 19.1828C211.745 20.5457 211.515 21.8105 211.547 22.9761C211.599 24.9073 212.673 25.8453 214.77 25.788C215.295 25.7006 215.684 25.58 215.936 25.427C216.205 25.2746 216.49 25.0207 216.791 24.6654C217.09 24.2931 217.382 23.984 217.668 23.7391L217.805 23.7353C217.742 24.7584 217.405 25.4599 216.795 25.8417C216.203 26.204 215.379 26.4006 214.322 26.4295C212.044 26.4918 210.788 25.5677 210.554 23.6594C210.475 24.1358 210.071 24.703 209.342 25.3612C208.63 26.0009 207.982 26.3287 207.399 26.3446L207.262 26.3484C206.124 26.0694 205.541 25.4111 205.512 24.3725C205.476 23.024 206.141 21.6923 207.509 20.3784C208.575 19.3469 209.628 18.8159 210.667 18.7875C211.25 18.7716 211.773 18.9033 212.236 19.1828ZM206.356 24.2123C206.364 24.5042 206.38 24.7409 206.403 24.9223C206.443 25.0853 206.539 25.2377 206.688 25.3797C206.856 25.5212 207.086 25.5869 207.378 25.5789C208.179 25.521 208.963 24.8614 209.731 23.5999C210.517 22.3209 210.925 21.2334 210.955 20.3392C210.653 19.9823 210.248 19.8114 209.738 19.8253C209.081 19.8433 208.41 20.2808 207.722 21.1389C207.034 21.996 206.579 23.0208 206.356 24.2123ZM218.281 23.1481L218.554 23.1406C218.786 22.9702 219.241 22.5927 219.918 22.0089C220.613 21.4067 220.996 21.0771 221.068 21.0202C221.157 20.9447 221.67 20.4105 222.61 19.4184C222.68 19.3255 222.785 19.1315 222.923 18.8357C223.215 18.1714 223.569 17.8336 223.988 17.8222C224.244 17.8152 224.375 17.9476 224.382 18.2215C224.389 18.4764 224.306 18.7708 224.133 19.1037C223.959 19.4365 223.875 19.6939 223.88 19.8759L224.02 24.988C225.515 24.9471 226.527 24.6273 227.058 24.0296C227.271 23.8047 227.562 23.4686 227.933 23.0203C228.322 22.5725 228.721 22.1785 229.132 21.8391L229.139 22.112C229.157 22.7498 228.783 23.4172 228.018 24.1124C227.252 24.7896 226.445 25.2948 225.597 25.6281C224.749 25.9614 224.161 26.1325 223.834 26.1415C223.505 26.1505 223.278 26.1477 223.149 26.1332C222.657 26.1466 222.19 26.0684 221.747 25.8974C221.306 25.7454 220.789 25.5044 220.196 25.1745C219.622 24.8431 219.159 24.6007 218.808 24.4462C218.057 24.9779 217.435 25.25 216.943 25.2634C216.469 25.2764 216.23 25.1829 216.224 24.982C216.222 24.891 216.31 24.7516 216.487 24.5647C216.646 24.3782 217.004 24.1764 217.565 23.961L217.023 23.1825C216.93 23.112 216.938 23.0568 217.046 23.0178C217.154 22.9598 217.235 22.9306 217.289 22.9291L217.757 23.0254C218.088 23.1074 218.263 23.1486 218.281 23.1481ZM219.852 23.6243C220.064 24.0197 220.547 24.3436 221.301 24.5971C222.057 24.8496 222.734 24.9681 223.336 24.9516C223.293 23.3662 223.144 21.9478 222.891 20.6962C222.497 20.9441 222.246 21.125 222.14 21.2369C222.033 21.3309 221.661 21.7242 221.024 22.4159C220.385 23.1086 219.995 23.5114 219.852 23.6243ZM228.556 22.8122C228.534 22.6487 228.521 22.494 228.517 22.3481C228.485 21.1815 228.835 19.9685 229.566 18.7091C230.315 17.4481 231.301 16.8009 232.522 16.7676C232.759 16.7611 232.952 16.8289 233.101 16.9708C233.251 17.0948 233.33 17.3207 233.339 17.6486C233.348 17.9585 233.267 18.3338 233.097 18.7766C232.943 19.2 232.691 19.635 232.339 20.0828C232.004 20.5291 231.713 20.8932 231.466 21.1731C231.218 21.4539 230.863 21.8188 230.401 22.2696C229.958 22.7188 229.692 22.9912 229.603 23.0847C229.589 23.2311 229.582 23.3133 229.583 23.3313C229.596 23.8232 229.844 24.1995 230.325 24.4595C230.806 24.7204 231.302 24.8429 231.812 24.829C233.033 24.7956 233.993 24.5513 234.692 24.094C235.408 23.6373 236.226 22.8756 237.145 21.8111C237.286 21.6252 237.364 21.477 237.379 21.3676C237.413 21.2566 237.51 21.1359 237.67 21.0035C237.855 21.0714 237.951 21.2419 237.958 21.5158C237.791 22.0856 237.444 22.7063 236.915 23.377C236.386 24.0297 235.754 24.5942 235.02 25.0704C233.996 25.6996 233.121 26.0247 232.392 26.0446C231.681 26.064 230.983 25.837 230.295 25.3636C229.608 24.8892 229.028 24.0398 228.556 22.8122ZM232.604 17.7777C231.821 17.7991 231.103 18.2379 230.452 19.095C229.801 19.9511 229.485 20.7631 229.506 21.5278C229.513 21.7827 229.537 21.9651 229.576 22.0731C230.24 21.6898 230.915 21.0521 231.602 20.158C232.288 19.2449 232.623 18.4524 232.604 17.7777ZM240.432 25.9619C240.497 25.686 240.565 25.493 240.635 25.3811C240.724 25.2876 240.842 25.2484 240.987 25.2624C241.134 25.3134 241.211 25.4294 241.216 25.6113C241.226 25.9762 241.168 26.2238 241.045 26.3553C240.92 26.4857 240.823 26.5804 240.751 26.6364C240.698 26.6929 240.663 26.7208 240.645 26.7213L240.59 26.7228C240.426 26.7273 240.341 26.6386 240.336 26.4567C240.331 26.2747 240.363 26.1088 240.432 25.9619ZM242.614 17.6952L242.49 18.1637C242.309 18.8979 242.111 20.0158 241.897 21.5172C241.617 21.926 241.413 22.1326 241.285 22.1361C241.176 22.1391 241.117 22.0037 241.11 21.7308C241.102 21.4389 241.252 20.5955 241.561 19.2015C241.887 17.8071 242.04 17.0546 242.018 16.9462C243.582 16.1011 244.631 15.1241 245.166 14.015C245.547 13.2574 245.809 12.5389 245.956 11.8597C246.101 11.1634 246.165 10.5134 246.148 9.91266C246.096 7.98138 245.476 7.03095 244.292 7.06333C243.764 7.07776 243.161 7.35936 242.482 7.90609C241.823 8.45331 241.306 9.23373 240.933 10.2463C240.829 10.4502 240.78 10.6796 240.787 10.9345C240.794 11.1894 240.776 11.5181 240.732 11.9204C240.688 12.3228 240.621 12.5257 240.53 12.5282C240.457 12.5302 240.353 12.4049 240.219 12.1535C240.103 11.9016 240.039 11.6022 240.03 11.2564C240.02 10.9095 240.074 10.5159 240.19 10.0756C240.467 8.86453 241.068 7.87173 241.995 7.09911C242.941 6.32596 243.751 5.9297 244.425 5.91128C244.57 5.90729 244.708 5.92154 244.836 5.95505C245.772 6.16655 246.41 6.83236 246.751 7.95346C246.911 8.46028 247 9.03207 247.017 9.66984C247.035 10.3076 246.944 11.0213 246.747 11.811C246.568 12.6002 246.358 13.2712 246.118 13.8249C245.878 14.3787 245.528 14.9175 245.068 15.4402C244.608 15.945 244.262 16.3016 244.031 16.508C243.817 16.6959 243.345 17.092 242.614 17.6952ZM73.9984 53.543C73.8965 53.1447 73.8348 52.5351 73.8124 51.7154C73.79 50.8957 73.9643 49.6235 74.3363 47.8987C74.8699 45.3862 75.7263 43.0099 76.9045 40.7719C78.1018 38.5323 79.3439 37.2759 80.631 37.0036C81.0138 36.9932 81.3454 37.1211 81.6268 37.3876C81.9072 37.653 82.1326 37.8839 82.302 38.0804C82.4894 38.2753 82.6823 38.6712 82.8817 39.268C83.0975 39.8453 83.2117 40.3253 83.2222 40.7082C83.2326 41.0911 83.2311 41.4012 83.2196 41.6386C83.2246 41.8206 83.1001 41.915 82.8442 41.922L82.7622 41.9242C82.7442 41.9247 82.735 41.916 82.7345 41.898C82.5822 40.3155 82.3071 39.2557 81.9093 38.7193C81.5495 38.256 81.0879 38.0215 80.5227 38.019C79.7749 38.0394 78.9152 38.9382 77.9424 40.7155C76.9886 42.4922 76.1925 44.4017 75.555 46.4429C74.9361 48.4665 74.6423 50.0511 74.6736 51.1997C74.7045 52.3293 75.084 53.5494 75.8131 54.8609C76.5407 56.1545 77.5343 56.7836 78.7908 56.7493C80.0484 56.7149 81.252 56.0258 82.3997 54.6809C83.5674 53.3365 84.2687 51.9858 84.5047 50.6299C84.7072 50.6793 84.8116 50.8406 84.8191 51.1135C84.826 51.3684 84.8131 51.5518 84.779 51.6618C84.3971 53.0217 83.6137 54.3746 82.428 55.7195C81.2614 57.0649 80.0768 57.7535 78.8742 57.7864C77.6896 57.8188 76.6658 57.3996 75.8037 56.5298C74.9596 55.6596 74.3572 54.6637 73.9984 53.543ZM85.484 54.4325C85.5012 52.3893 86.0172 49.8953 87.0301 46.9505C88.044 44.0047 88.9214 42.3941 89.6611 42.1188C89.88 42.1128 90.0407 42.3175 90.1431 42.7348C90.2455 43.1512 90.301 43.4958 90.3085 43.7697C90.3353 44.7533 90.1573 45.9256 89.7753 47.2856C89.3919 48.6276 88.9294 49.7156 88.387 50.5507C88.1781 50.9216 87.8887 51.3126 87.5168 51.724C87.1629 52.1348 86.8912 52.5164 86.6997 52.8677C86.5267 53.2006 86.4472 53.6219 86.4612 54.1327C86.4861 55.0434 86.7524 55.7844 87.2602 56.3537C87.7859 56.9226 88.5046 57.195 89.4163 57.1701C90.9287 57.1287 91.8712 56.5828 92.2436 55.5332L92.5445 55.525C92.5639 56.2357 92.2235 56.8102 91.5243 57.2495C90.825 57.6878 90.029 57.9196 89.1363 57.944C88.2437 57.9684 87.4687 57.6515 86.8125 56.9952C86.1558 56.3199 85.7133 55.4656 85.484 54.4325ZM89.6022 43.9531C89.4607 44.121 89.2253 44.5106 88.8949 45.1208C88.5834 45.7316 88.4032 46.1287 88.3532 46.3121C87.2198 49.5343 86.6561 51.2733 86.6631 51.5282C87.4144 50.9785 88.095 49.8575 88.7049 48.1622C89.3143 46.4499 89.6131 45.0472 89.6022 43.9531ZM92.0263 51.5727L92.1256 51.2148C92.4576 50.0383 92.7515 49.4471 93.0074 49.4401C93.3713 49.4301 93.557 49.5621 93.5644 49.835C93.5659 49.89 93.5584 49.9452 93.5419 49.9997C92.8955 51.714 92.5937 53.3358 92.6355 54.8663C92.6545 55.559 92.8433 56.1371 93.2032 56.6014C93.5615 57.0478 94.0965 57.2612 94.8073 57.2418C96.5737 56.5003 97.6848 56.1238 98.1406 56.1113C98.2866 56.1073 98.3605 56.1413 98.3625 56.2143C98.3685 56.4332 97.9034 56.765 96.9672 57.2098C96.0305 57.6365 95.2883 57.8579 94.7415 57.8728C94.2137 57.8873 93.8116 57.8522 93.5352 57.7688C93.2603 57.7033 93.0574 57.6358 92.9284 57.5663C92.7985 57.4968 92.6393 57.3461 92.4509 57.1142C92.262 56.8642 92.1341 56.5396 92.0681 56.1402C92.0027 55.7229 91.9585 55.1309 91.9376 54.3661C91.9167 53.6004 91.9463 52.6693 92.0263 51.5727ZM100.086 56.2492C100.706 56.2322 101.341 56.1238 101.992 55.924C102.644 55.7231 103.456 55.4458 104.431 55.091C105.407 54.7362 106.058 54.5544 106.386 54.5454C106.714 54.5364 106.88 54.6229 106.885 54.8049C106.888 54.8958 106.872 54.9973 106.838 55.1073C104.104 56.4405 101.961 57.1283 100.412 57.1706C99.5377 57.1945 98.8485 57.0123 98.3457 56.6249C97.861 56.237 97.6113 55.7786 97.5969 55.2508C97.582 54.704 97.667 54.1545 97.853 53.6022C98.2754 52.3692 98.9875 51.4104 99.9902 50.7268C100.58 50.3095 101.13 50.0934 101.641 50.0794C102.534 50.055 103.295 50.5544 103.925 51.5766L103.927 51.6585L103.449 52.1638C103.043 51.3546 102.503 50.9582 101.83 50.9766C101.593 50.9831 101.348 51.0448 101.096 51.1607C100.211 51.495 99.5012 52.1987 98.9653 53.2707C98.6019 53.9919 98.4304 54.7079 98.4498 55.4186C98.6477 55.9964 99.1935 56.2736 100.086 56.2492ZM106.704 57.1897L108.032 48.7013L109.652 40.9431C110.097 40.5658 110.466 40.3736 110.758 40.3656C111.195 40.3537 111.426 40.7946 111.45 41.6872C111.5 43.4915 110.88 46.1795 109.592 49.753C109.117 51.0605 108.647 52.1948 108.181 53.1559C108.323 53.0059 108.605 52.6791 109.029 52.1753C109.472 51.671 109.79 51.3152 109.984 51.1098C110.198 50.9029 110.509 50.6123 110.918 50.236C111.345 49.8411 111.721 49.5578 112.044 49.3849C112.851 48.9066 113.674 48.638 114.511 48.5792C115.136 48.7621 115.455 49.0905 115.468 49.5644C115.481 50.0202 115.052 50.6972 114.183 51.5962C113.332 52.4768 112.377 53.2232 111.317 53.8364C111.81 54.4972 112.472 55.0443 113.305 55.4777C114.137 55.8921 114.944 56.0891 115.728 56.0677C116.512 56.0463 117.026 55.8592 117.271 55.5063C117.308 55.5053 117.354 55.5401 117.411 55.6115C117.486 55.6645 117.524 55.7085 117.525 55.7455C117.535 56.1093 117.351 56.4245 116.975 56.6898C116.6 56.9562 116.321 57.0909 116.139 57.0958C115.975 57.1003 115.865 57.0943 115.811 57.0778C115.098 57.0423 114.325 56.7903 113.492 56.3209C112.677 55.85 111.898 55.4061 111.158 54.9892C110.435 54.5528 109.836 54.3411 109.362 54.354C108.907 54.3665 108.607 54.3937 108.462 54.4336C108.339 54.6381 108.213 54.9967 108.081 55.5105C107.967 56.0248 107.814 56.4301 107.622 56.7274C107.429 57.0238 107.123 57.1782 106.704 57.1897ZM109.458 52.8748C109.773 53.0303 110.176 53.1013 110.668 53.0879C111.16 53.0744 111.772 52.8026 112.506 52.2713C113.614 51.4387 114.235 50.5014 114.371 49.4583C113.059 49.4942 111.422 50.6323 109.458 52.8748ZM110.2 41.9945L108.356 50.5521C108.424 50.3862 108.562 50.1003 108.77 49.6934C108.977 49.2676 109.115 48.9818 109.184 48.8338C109.252 48.6679 109.363 48.4098 109.519 48.0584C109.673 47.69 109.782 47.3769 109.848 47.12C109.932 46.8616 110.033 46.5308 110.149 46.1264C110.349 45.4097 110.551 44.4558 110.755 43.2658C110.731 42.3721 110.6 41.9296 110.363 41.936C110.309 41.9375 110.254 41.957 110.2 41.9945ZM140.395 54.8462C139.431 55.5838 138.365 55.9691 137.199 56.001C136.597 56.0174 136.101 55.8479 135.708 55.4945C135.334 55.1396 135.094 54.69 134.988 54.1467C134.88 53.5834 134.804 53.0843 134.755 52.6485C134.724 52.1932 134.705 51.8196 134.697 51.5287C134.689 51.2188 134.698 50.8994 134.725 50.5705C134.665 50.3711 134.408 50.2781 133.952 50.2906C133.514 50.3025 133.092 50.5421 132.686 51.0084C132.279 51.4757 131.948 52.032 131.692 52.6772C131.453 53.304 131.215 53.9307 130.977 54.5564C130.757 55.1827 130.542 55.6537 130.332 55.9696C130.122 56.2855 129.944 56.4454 129.799 56.4494C129.653 56.4533 129.542 56.4374 129.468 56.4034C129.447 56.2949 129.435 56.1672 129.431 56.0212C129.406 55.1106 129.671 53.1426 130.227 50.1183C130.782 47.095 131.341 44.4988 131.902 42.3316C131.934 42.2027 132.028 41.927 132.18 41.5037C132.35 41.0609 132.533 40.7458 132.729 40.5584C132.923 40.353 133.13 40.2463 133.349 40.2403C133.567 40.2343 133.742 40.2756 133.872 40.3631L133.87 40.3081C134.057 40.431 134.21 40.7369 134.333 41.2258C134.456 41.7146 134.521 42.1049 134.529 42.3968C134.576 44.1092 134.172 45.6888 133.318 47.1347C132.97 47.7275 132.621 48.2842 132.27 48.805C131.92 49.3247 131.641 49.8155 131.435 50.2773C131.247 50.7376 131.155 51.0783 131.161 51.2962L131.173 51.707C132.137 50.2762 133.183 49.5453 134.314 49.5144C134.715 49.5034 135.007 49.5415 135.192 49.6274C135.34 49.7144 135.435 49.8399 135.476 50.0028C135.516 50.1468 135.545 50.5381 135.563 51.1759C135.598 51.7952 135.639 52.3322 135.689 52.787C135.755 53.2224 135.851 53.694 135.974 54.2018C136.096 54.6906 136.251 55.0055 136.437 55.1465C136.641 55.2859 136.825 55.3539 136.989 55.3495C137.153 55.345 137.325 55.2953 137.505 55.1993C139.087 54.3718 140.133 53.951 140.644 53.9371C140.881 53.9306 141.001 54.0003 141.005 54.1463C141.009 54.2912 140.806 54.5249 140.395 54.8462ZM132.675 42.6386C132.073 45.263 131.768 46.7579 131.759 47.1223L131.774 47.6961L131.813 48.0782C132.659 47.7089 133.228 46.1798 133.52 43.4908C133.608 42.7041 133.645 42.0649 133.632 41.5731C133.618 41.0812 133.529 40.8376 133.366 40.8421C133.202 40.8465 132.972 41.445 132.675 42.6386ZM140.433 53.2316C140.41 53.0681 140.397 52.9134 140.393 52.7675C140.361 51.6009 140.711 50.3879 141.442 49.1285C142.192 47.8675 143.177 47.2203 144.398 47.187C144.635 47.1805 144.829 47.2482 144.978 47.3902C145.127 47.5142 145.206 47.7401 145.215 48.068C145.224 48.3778 145.143 48.7532 144.973 49.196C144.821 49.6193 144.567 50.0544 144.216 50.5022C143.881 50.9485 143.59 51.3126 143.342 51.5925C143.095 51.8733 142.74 52.2381 142.279 52.6889C141.835 53.1382 141.568 53.4106 141.48 53.5041C141.466 53.6505 141.459 53.7327 141.459 53.7507C141.473 54.2425 141.72 54.6189 142.201 54.8789C142.683 55.1398 143.178 55.2623 143.688 55.2484C144.91 55.215 145.869 54.9707 146.568 54.5134C147.285 54.0566 148.103 53.295 149.023 52.2305C149.163 52.0446 149.241 51.8964 149.257 51.7869C149.29 51.676 149.386 51.5553 149.547 51.4229C149.732 51.4908 149.827 51.6613 149.835 51.9352C149.668 52.5049 149.32 53.1257 148.791 53.7964C148.262 54.4491 147.63 55.0136 146.896 55.4898C145.874 56.119 144.998 56.444 144.268 56.464C143.558 56.4834 142.859 56.2564 142.171 55.783C141.484 55.3086 140.904 54.4581 140.433 53.2316ZM144.481 48.1971C143.697 48.2185 142.98 48.6573 142.328 49.5144C141.677 50.3705 141.362 51.1824 141.383 51.9471C141.39 52.202 141.413 52.3845 141.452 52.4924C142.117 52.1091 142.793 51.4714 143.478 50.5774C144.165 49.6643 144.499 48.8718 144.481 48.1971ZM156.59 53.9113C156.62 54.3297 156.944 54.5309 157.564 54.5139C157.929 54.504 158.337 54.4198 158.788 54.2614C159.24 54.103 159.675 54.0001 160.093 53.9526C160.529 53.9037 160.751 54.0077 160.757 54.2626C160.007 54.7933 158.957 55.1231 157.611 55.2509C157.54 55.2709 157.467 55.2829 157.394 55.2849C156.883 55.2988 156.479 55.1908 156.181 54.9619C155.901 54.7144 155.757 54.4443 155.749 54.1534C155.741 53.8615 155.753 53.6151 155.783 53.4142C155.772 53.0123 155.838 52.4273 155.982 51.6581C156.143 50.8874 156.219 50.3111 156.208 49.9283C155.88 49.9372 155.317 50.0257 154.519 50.1935C153.739 50.3419 153.177 50.4763 152.834 50.5947C152.441 52.8853 151.689 54.4194 150.58 55.197C150.258 55.4249 150.006 55.5408 149.823 55.5458C149.66 55.5503 149.532 55.5178 149.439 55.4473C149.363 55.3583 149.323 55.2584 149.32 55.1494C149.317 55.0215 149.394 54.8553 149.553 54.6509C150.119 54.6714 150.531 54.3871 150.788 53.7968C151.047 53.2425 151.249 52.6528 151.396 52.0295C151.561 51.3868 151.694 50.918 151.796 50.6231C150.93 50.3006 150.49 49.8745 150.475 49.3467C150.449 48.3801 150.85 47.7129 151.679 47.3441C151.967 47.2262 152.257 47.1642 152.549 47.1562C152.84 47.1483 153.108 47.241 153.349 47.4355C153.611 47.6284 153.745 47.9078 153.755 48.2717C153.765 48.6365 153.542 49.1438 153.086 49.7945C153.141 49.793 153.466 49.7111 154.064 49.5487C155.711 49.0665 156.706 48.8202 157.053 48.8108C157.069 49.3756 156.991 50.235 156.822 51.388C156.652 52.5241 156.575 53.3645 156.59 53.9113ZM152.323 47.9007C151.977 47.9101 151.695 48.292 151.479 49.0452C151.488 49.373 151.76 49.6307 152.293 49.8162C152.665 49.4229 152.847 49.0448 152.837 48.6799C152.833 48.534 152.783 48.3713 152.687 48.1918C152.608 47.9929 152.486 47.8962 152.323 47.9007ZM159.757 52.7033C159.735 52.5399 159.722 52.3852 159.718 52.2392C159.686 51.0727 160.036 49.8596 160.767 48.6002C161.517 47.3392 162.502 46.6921 163.723 46.6587C163.96 46.6522 164.154 46.72 164.303 46.8619C164.452 46.9859 164.531 47.2118 164.54 47.5397C164.549 47.8496 164.468 48.2249 164.298 48.6677C164.145 49.0911 163.892 49.5261 163.54 49.9739C163.205 50.4203 162.915 50.7843 162.667 51.0642C162.419 51.3451 162.065 51.7099 161.603 52.1607C161.159 52.61 160.894 52.8823 160.804 52.9758C160.79 53.1223 160.784 53.2045 160.784 53.2225C160.798 53.7143 161.045 54.0907 161.526 54.3506C162.007 54.6115 162.503 54.7341 163.014 54.7201C164.234 54.6867 165.194 54.4424 165.893 53.9851C166.61 53.5284 167.428 52.7667 168.346 51.7022C168.487 51.5163 168.565 51.3681 168.581 51.2587C168.614 51.1477 168.711 51.027 168.871 50.8946C169.056 50.9626 169.152 51.133 169.16 51.4069C168.993 51.9767 168.645 52.5974 168.116 53.2681C167.587 53.9208 166.955 54.4853 166.221 54.9616C165.198 55.5907 164.323 55.9158 163.593 55.9357C162.883 55.9551 162.184 55.7281 161.496 55.2548C160.809 54.7804 160.229 53.9299 159.757 52.7033ZM163.805 47.6688C163.022 47.6902 162.304 48.129 161.653 48.9861C161.002 49.8422 160.687 50.6542 160.708 51.4189C160.715 51.6738 160.738 51.8562 160.777 51.9642C161.441 51.5809 162.117 50.9432 162.803 50.0491C163.489 49.136 163.824 48.3436 163.805 47.6688ZM171.07 55.2932C170.798 55.3006 170.657 55.1864 170.651 54.9495C170.644 54.7126 170.731 54.5281 170.91 54.3952C171.106 54.2438 171.314 54.1651 171.533 54.1591C171.553 54.9068 171.399 55.2842 171.07 55.2932ZM169.231 42.0225L169.134 40.4935C169.223 40.4001 169.314 40.3516 169.405 40.3491C169.604 40.3436 169.787 40.7038 169.953 41.4285C170.137 42.1528 170.268 43.5807 170.344 45.7124C170.439 47.8436 170.5 49.0454 170.525 49.3178L170.537 49.7557C170.548 50.1745 170.426 50.3879 170.171 50.3949C169.97 50.4004 169.832 50.3121 169.754 50.1322C169.654 49.7888 169.543 48.4053 169.421 45.9837C169.319 43.5606 169.255 42.2409 169.231 42.0225Z" fill="#3E4EA1"/>
<path fill-rule="evenodd" clip-rule="evenodd" d="M64.7914 19.747L65.3316 39.5096C65.395 41.8288 65.6214 44.2535 65.5564 46.6362C65.5194 48.2078 65.3521 49.7729 64.913 51.2755C63.3112 56.7213 60.2279 61.7674 56.4234 66.4131C50.7795 73.2999 43.5605 79.2894 37.2973 84.3824C35.0074 86.2457 32.7685 88.1476 30.4567 89.9414C28.9187 91.1339 27.3396 92.2875 25.6884 93.363C22.6115 95.3478 19.548 97.0922 16.3339 98.4505C13.1301 99.8185 9.76565 100.801 6.10685 101.261C5.96718 101.275 5.87079 101.408 5.88461 101.547C5.90843 101.687 6.03115 101.783 6.17082 101.769C9.87905 101.288 13.2831 100.295 16.5264 98.9055C19.7599 97.5266 22.8531 95.7714 25.9492 93.7561C27.6104 92.6803 29.1892 91.5166 30.737 90.3139C33.0585 88.5098 35.2974 86.6079 37.5873 84.7446C43.8799 79.6308 51.1181 73.6108 56.7712 66.6938C60.6145 62.007 63.7263 56.9 65.3367 51.404C65.7847 49.8611 65.9611 48.2657 66.0068 46.6439C66.0714 44.2512 65.845 41.8265 65.7814 39.4973L65.2412 19.7347C65.2379 19.6148 65.1352 19.5176 65.0053 19.5211C64.8853 19.5244 64.7881 19.627 64.7914 19.747Z" fill="#3E4EA1"/>
<path fill-rule="evenodd" clip-rule="evenodd" d="M6.31305 101.456C6.48752 101.251 6.79801 100.902 6.82718 100.871L7.85477 99.3027C8.03841 99.0676 8.28343 98.8808 8.48734 98.6551C8.58429 98.5424 8.67088 98.42 8.7473 98.2879C8.81372 98.156 9.30257 97.3725 9.30257 97.3725C9.30257 97.3725 9.27226 97.3633 9.26227 97.3636C9.3825 97.3703 9.48997 97.2772 9.48642 97.1473C9.49314 97.0271 9.40021 96.9196 9.27026 96.9231C9.18002 96.9156 9.02198 96.9899 8.8964 97.1534C8.67359 97.4196 8.40795 97.9471 8.34153 98.0789C8.29428 98.1803 8.2267 98.2722 8.14891 98.3543C7.94527 98.59 7.69064 98.787 7.49728 99.0324L6.44049 100.632C6.42132 100.662 6.06219 101.062 5.91662 101.226C5.80049 101.37 5.81405 101.499 5.81433 101.509C5.85841 101.658 5.95128 101.766 6.09342 101.842C6.37769 101.994 6.91693 101.959 7.10069 102.094C7.25419 102.22 7.42697 102.316 7.59964 102.411C7.97497 102.601 8.37881 102.74 8.75468 102.949C9.2019 103.207 9.79078 103.521 10.3669 103.736C10.7913 103.894 11.2142 103.993 11.594 103.982C11.724 103.979 11.8212 103.876 11.8176 103.746C11.8144 103.626 11.7117 103.529 11.5817 103.532C11.2519 103.541 10.8892 103.451 10.5252 103.311C9.95944 103.107 9.41099 102.801 8.97432 102.563C8.58817 102.344 8.1842 102.205 7.8086 102.005C7.65647 101.929 7.51401 101.843 7.37105 101.737C7.1873 101.602 6.71695 101.595 6.39379 101.483C6.36353 101.474 6.33332 101.465 6.31305 101.456Z" fill="#3E4EA1"/>
</g>
</g>
<defs>
<filter id="filter0_f_535_384" x="0.71875" y="0.670898" width="249.559" height="105.659" filterUnits="userSpaceOnUse" color-interpolation-filters="sRGB">
<feFlood flood-opacity="0" result="BackgroundImageFix"/>
<feBlend mode="normal" in="SourceGraphic" in2="BackgroundImageFix" result="shape"/>
<feGaussianBlur stdDeviation="0.5" result="effect1_foregroundBlur_535_384"/>
</filter>
<clipPath id="clip0_535_384">
<rect width="245" height="97" fill="white" transform="translate(1.71875 8.36572) rotate(-1.56583)"/>
</clipPath>
</defs>
</svg>
